<svg width="250" height="39" viewBox="0 0 250 39" fill="none" xmlns="http://www.w3.org/2000/svg">
<g opacity="0.75">
<path opacity="0.75" d="M3.29166 38.0126C3.20943 37.7997 5.38032 32.3449 8.09393 25.8746C10.8075 19.4042 13.0607 13.9822 13.0607 13.802C13.0607 13.6218 12.5344 12.1803 11.8601 10.6078C11.1858 9.01884 10.6595 7.62648 10.6595 7.49544C10.6595 7.36439 17.0242 7.24973 26.0367 7.24973C41.3645 7.24973 41.3974 7.24973 41.2329 7.77391C41.1342 8.06876 40.5422 9.5594 39.9172 11.05L38.7989 13.7856L30.5758 13.9167L22.3527 14.0477L21.3166 16.4065C20.7246 17.717 20.2805 18.88 20.2805 19.0111C20.2805 19.1093 23.027 19.224 26.3985 19.224C29.8522 19.224 32.5987 19.3223 32.6809 19.4697C32.7796 19.6008 32.2862 21.0586 31.5626 22.7458L30.2633 25.7435L23.7671 25.8746L17.2544 26.0056L16.2348 28.3808C15.6427 29.6913 15.1987 30.8051 15.1987 30.8543C15.1987 30.887 18.5372 30.9526 22.5994 30.9853L29.9673 31.0672L31.4146 34.4744C32.1875 36.3418 32.7796 37.9799 32.6974 38.1109C32.5987 38.2747 26.9248 38.373 17.9781 38.373C5.64346 38.3894 3.42323 38.3402 3.29166 38.0126Z" fill="#B0B0B0"/>
<path opacity="0.75" d="M35.3784 38.1442C35.2798 37.9313 47.5321 8.59347 48.1406 7.61063C48.4038 7.18473 57.1367 7.10283 57.1367 7.52873C57.1367 7.65977 55.0316 12.7705 52.4331 18.8805C49.8346 25.0069 47.6801 30.216 47.5979 30.478C47.4663 30.9039 47.861 30.9367 53.6008 30.9367C57.1038 30.9367 59.8174 31.035 59.9325 31.1824C60.1463 31.5592 57.7123 37.6692 57.2025 38.0787C56.6597 38.4718 35.6416 38.5537 35.3784 38.1442Z" fill="#B0B0B0"/>
<path opacity="0.75" d="M60.1786 38.0456C60.0963 37.8326 62.2837 32.4106 65.0137 25.973C67.7438 19.5354 69.9476 14.0479 69.9476 13.8185C69.9476 13.6056 69.4706 12.1969 68.8786 10.739C68.2865 9.2811 67.8096 7.88874 67.8096 7.67579C67.8096 7.3318 69.7667 7.28265 82.8413 7.28265C91.1138 7.28265 97.9553 7.36456 98.0705 7.44646C98.2349 7.61027 97.4291 9.8708 96.3107 12.4262L95.62 13.9496H87.4956H79.3548L78.2693 16.4067C77.6608 17.7663 77.1674 18.9621 77.1674 19.0604C77.1674 19.1423 79.9962 19.2242 83.4499 19.2242C87.693 19.2242 89.7323 19.3061 89.7323 19.519C89.7323 19.863 87.5614 25.1048 87.2489 25.5307C87.068 25.7764 85.2918 25.8747 80.6047 25.9239L74.1907 26.0058L73.171 28.3973L72.1514 30.7889L79.5192 30.92L86.8871 31.051L88.3015 34.3435C89.1073 36.1454 89.6829 37.7998 89.6172 38.0128C89.4034 38.5534 60.3924 38.5534 60.1786 38.0456Z" fill="#B0B0B0"/>
<path opacity="0.75" d="M93.5976 38.144C93.5154 38.0129 95.7356 32.4763 98.5315 25.8585L103.613 13.8023L102.413 10.9357C101.738 9.36316 101.212 7.90528 101.212 7.65957C101.212 7.28281 102.462 7.26643 113.119 7.31557L125.026 7.39748L125.914 8.41308C126.687 9.29763 126.819 9.34678 127.115 9.00278C127.329 8.75707 128.003 8.28203 128.611 7.90528L129.763 7.23367L139.252 7.31557C148.33 7.39748 148.758 7.41386 149.482 7.95442C149.876 8.24927 150.435 8.9045 150.715 9.4123C151.537 10.9848 151.192 12.4427 148.495 18.8803C147.13 22.0746 144.762 27.6604 143.232 31.3296C141.686 34.9661 140.288 38.0621 140.14 38.1604C139.959 38.2587 137.969 38.3733 135.733 38.3733C132.575 38.3733 131.621 38.2914 131.506 38.0293C131.424 37.8164 133.43 32.8203 135.946 26.8905C138.43 20.9279 140.486 15.768 140.486 15.424C140.486 14.1463 139.68 13.9006 135.519 13.9006H131.72L130.914 15.8335C125.947 27.644 121.457 37.9966 121.194 38.1768C121.013 38.275 119.007 38.3897 116.754 38.3897C113.678 38.3897 112.642 38.3078 112.527 38.0457C112.478 37.8655 114.451 32.9349 116.902 27.087C119.385 21.2391 121.49 16.2103 121.605 15.8827C121.704 15.5059 121.572 15.08 121.211 14.6377C120.684 13.917 120.652 13.917 116.836 13.917C114.106 13.917 112.971 14.0153 112.757 14.261C112.626 14.4248 110.307 19.7976 107.626 26.1533C104.929 32.509 102.544 37.8819 102.331 38.0785C101.821 38.4388 93.8607 38.5207 93.5976 38.144Z" fill="#B0B0B0"/>
<path opacity="0.75" d="M145.978 38.1437C145.879 38.0126 148.116 32.476 150.895 25.8582L155.994 13.802L154.76 10.9026C154.086 9.31369 153.56 7.82305 153.56 7.62648C153.56 7.31525 155.994 7.24973 168.789 7.24973C178.558 7.24973 184.018 7.34801 184.018 7.51182C184.018 7.90496 181.88 13.1795 181.567 13.5727C181.354 13.8184 179.38 13.8839 173.312 13.8839C167.243 13.8839 165.302 13.9658 165.138 14.2279C165.039 14.3917 164.464 15.5547 163.937 16.816L162.983 19.0766L169.233 19.1585C174.66 19.2076 175.482 19.2568 175.482 19.6335C175.482 20.1086 173.723 24.4167 173.18 25.2685C172.802 25.8582 172.719 25.8582 166.453 25.8582H160.089L159.102 28.2006C158.576 29.4783 158.115 30.625 158.115 30.7232C158.115 30.8215 161.355 30.9034 165.302 30.9034C170.729 30.9034 172.539 30.9853 172.752 31.2474C173.312 31.9354 175.532 37.5867 175.367 37.9471C175.236 38.2911 173.344 38.3403 160.681 38.3403C152.178 38.3894 146.06 38.2747 145.978 38.1437Z" fill="#B0B0B0"/>
<path opacity="0.75" d="M179.611 38.1278C179.528 37.9967 181.749 32.4601 184.528 25.8587L189.61 13.8352L188.442 10.9359C187.768 9.34694 187.242 7.87268 187.242 7.65973C187.242 7.31574 189.116 7.26659 200.81 7.26659C215.578 7.26659 216.088 7.31574 217.453 8.75723C218.012 9.34694 218.095 9.70731 218.095 11.3454C218.095 13.2292 218.012 13.4421 212.914 25.4983C210.052 32.2307 207.553 37.8985 207.339 38.0786C206.813 38.4718 198.853 38.5373 198.606 38.1278C198.507 37.964 200.563 32.8368 203.112 26.6941C207.306 16.8001 207.783 15.4897 207.52 14.9164C207.125 14.0154 206.697 13.9335 202.438 13.9335H198.803L193.787 25.8259C191.008 32.3945 188.574 37.8985 188.343 38.095C187.834 38.4718 179.874 38.5209 179.611 38.1278Z" fill="#B0B0B0"/>
<path opacity="0.75" d="M219.673 38.1444C219.591 37.9806 221.778 32.5094 224.558 25.9572L229.607 14.032L224.558 13.9501C221.811 13.9174 219.542 13.7863 219.542 13.688C219.542 13.5898 220.134 12.1155 220.824 10.4447L222.14 7.38148L236.054 7.29957C249.227 7.25043 250 7.26681 250 7.69271C249.967 7.9548 249.474 9.42906 248.832 10.9688L247.681 13.7863L243.273 13.8682L238.833 13.9174L233.833 25.8425C231.054 32.3948 228.62 37.8987 228.39 38.0789C227.896 38.472 219.936 38.5211 219.673 38.1444Z" fill="#B0B0B0"/>
</g>
<path d="M0.00226134 31.4605C-0.0799694 31.2476 2.09092 25.7928 4.80453 19.3225C7.51815 12.8521 9.77127 7.43008 9.77127 7.24989C9.77127 7.0697 9.24499 5.6282 8.5707 4.05566C7.89641 2.46673 7.37013 1.07438 7.37013 0.943331C7.37013 0.812285 13.7348 0.69762 22.7473 0.69762C38.0751 0.69762 38.108 0.69762 37.9435 1.2218C37.8448 1.51665 37.2528 3.0073 36.6278 4.49794L35.5095 7.23351L27.2864 7.36456L19.0633 7.4956L18.0272 9.85442C17.4352 11.1649 16.9911 12.3279 16.9911 12.4589C16.9911 12.5572 19.7376 12.6719 23.1091 12.6719C26.5628 12.6719 29.3093 12.7702 29.3915 12.9176C29.4902 13.0487 28.9968 14.5065 28.2732 16.1937L26.9739 19.1914L20.4777 19.3225L13.9815 19.4699L12.9618 21.8451C12.3698 23.1555 11.9257 24.2694 11.9257 24.3186C11.9257 24.3513 15.2643 24.4168 19.3265 24.4496L26.6943 24.5315L28.1416 27.9387C28.9146 29.8061 29.5066 31.4442 29.4244 31.5752C29.3257 31.739 23.6518 31.8373 14.7051 31.8373C2.35406 31.8373 0.13383 31.7882 0.00226134 31.4605Z" fill="white"/>
<path d="M32.089 31.5921C31.9904 31.3792 44.2427 2.04136 44.8512 1.05852C45.1144 0.632626 53.8473 0.550723 53.8473 0.97662C53.8473 1.10767 51.7422 6.21844 49.1437 12.3284C46.5452 18.4548 44.3907 23.6639 44.3085 23.9259C44.1769 24.3518 44.5717 24.3846 50.3114 24.3846C53.8144 24.3846 56.528 24.4829 56.6431 24.6303C56.8569 25.0071 54.4229 31.1171 53.9131 31.5266C53.3703 31.9197 32.3522 32.0016 32.089 31.5921Z" fill="white"/>
<path d="M56.8892 31.4934C56.8069 31.2805 58.9943 25.8585 61.7243 19.4209C64.4544 12.9833 66.6582 7.49576 66.6582 7.26643C66.6582 7.05348 66.1812 5.64475 65.5892 4.18687C64.9971 2.72899 64.5202 1.33663 64.5202 1.12368C64.5202 0.779687 66.4773 0.730545 79.552 0.730545C87.8244 0.730545 94.666 0.812448 94.7811 0.894352C94.9455 1.05816 94.1397 3.31869 93.0214 5.87408L92.3306 7.39748H84.2062H76.0654L74.9799 9.85458C74.3714 11.2142 73.878 12.41 73.878 12.5082C73.878 12.5901 76.7068 12.6721 80.1605 12.6721C84.4036 12.6721 86.4429 12.754 86.4429 12.9669C86.4429 13.3109 84.272 18.5527 83.9595 18.9786C83.7786 19.2243 82.0024 19.3226 77.3153 19.3717L70.9013 19.4537L69.8816 21.8452L68.862 24.2368L76.2298 24.3679L83.5977 24.4989L85.0121 27.7914C85.8179 29.5933 86.3936 31.2477 86.3278 31.4607C86.114 32.0012 57.103 32.0012 56.8892 31.4934Z" fill="white"/>
<path d="M90.3082 31.5919C90.226 31.4608 92.4462 25.9242 95.2421 19.3064L100.324 7.25021L99.1233 4.38359C98.4491 2.81105 97.9228 1.35317 97.9228 1.10746C97.9228 0.730703 99.1727 0.714322 109.83 0.763464L121.737 0.845367L122.625 1.86097C123.398 2.74553 123.529 2.79467 123.825 2.45067C124.039 2.20496 124.714 1.72992 125.322 1.35317L126.473 0.681561L135.963 0.763464C145.041 0.845367 145.469 0.861748 146.192 1.40231C146.587 1.69716 147.146 2.35239 147.426 2.86019C148.248 4.43273 147.903 5.89061 145.205 12.3282C143.84 15.5225 141.472 21.1083 139.943 24.7775C138.397 28.414 136.999 31.51 136.851 31.6083C136.67 31.7066 134.68 31.8212 132.443 31.8212C129.286 31.8212 128.332 31.7393 128.217 31.4772C128.134 31.2643 130.141 26.2682 132.657 20.3384C135.14 14.3758 137.196 9.21589 137.196 8.8719C137.196 7.5942 136.39 7.34849 132.229 7.34849H128.43L127.624 9.28141C122.658 21.0919 118.168 31.4445 117.905 31.6246C117.724 31.7229 115.717 31.8376 113.464 31.8376C110.389 31.8376 109.353 31.7557 109.238 31.4936C109.188 31.3134 111.162 26.3828 113.612 20.5349C116.096 14.687 118.201 9.65817 118.316 9.33056C118.415 8.9538 118.283 8.5279 117.921 8.08562C117.395 7.36487 117.362 7.36487 113.547 7.36487C110.817 7.36487 109.682 7.46316 109.468 7.70887C109.336 7.87268 107.017 13.2455 104.337 19.6012C101.64 25.9569 99.2549 31.3298 99.0411 31.5264C98.5313 31.8867 90.5714 31.9686 90.3082 31.5919Z" fill="white"/>
<path d="M142.689 31.5916C142.59 31.4605 144.827 25.9239 147.606 19.3061L152.704 7.24989L151.471 4.35051C150.797 2.76159 150.27 1.27094 150.27 1.07438C150.27 0.763143 152.704 0.69762 165.499 0.69762C175.268 0.69762 180.729 0.795904 180.729 0.959711C180.729 1.35285 178.591 6.62742 178.278 7.02056C178.064 7.26627 176.091 7.33179 170.022 7.33179C163.953 7.33179 162.013 7.4137 161.848 7.67579C161.733 7.85597 161.174 9.03538 160.631 10.2803L159.677 12.5408L165.927 12.6228C171.354 12.6719 172.177 12.721 172.177 13.0978C172.177 13.5728 170.417 17.8809 169.874 18.7327C169.496 19.3224 169.414 19.3224 163.148 19.3224H156.783L155.796 21.6649C155.27 22.9426 154.809 24.0892 154.809 24.1875C154.809 24.2858 158.049 24.3677 161.996 24.3677C167.424 24.3677 169.233 24.4496 169.447 24.7117C170.006 25.3997 172.226 31.051 172.061 31.4114C171.93 31.7554 170.039 31.8045 157.375 31.8045C148.889 31.8373 142.771 31.7226 142.689 31.5916Z" fill="white"/>
<path d="M176.321 31.5757C176.239 31.4446 178.459 25.9079 181.239 19.3065L186.32 7.28313L185.153 4.38375C184.478 2.79483 183.952 1.32057 183.952 1.10762C183.952 0.763627 185.827 0.714485 197.52 0.714485C212.289 0.714485 212.799 0.763627 214.164 2.20513C214.723 2.79483 214.805 3.1552 214.805 4.79327C214.805 6.67705 214.723 6.88999 209.625 18.9462C206.763 25.6786 204.263 31.3463 204.049 31.5265C203.523 31.9197 195.563 31.9852 195.316 31.5757C195.218 31.4119 197.274 26.2847 199.823 20.142C204.017 10.248 204.493 8.93758 204.23 8.36426C203.836 7.46332 203.408 7.38142 199.148 7.38142H195.514L190.498 19.2738C187.718 25.8424 185.284 31.3463 185.054 31.5429C184.544 31.9197 176.584 31.9688 176.321 31.5757Z" fill="white"/>
<path d="M216.384 31.5923C216.302 31.4285 218.489 25.9573 221.268 19.4051L226.317 7.47992L221.268 7.39802C218.522 7.36526 216.252 7.23421 216.252 7.13593C216.252 7.03764 216.844 5.56338 217.535 3.89255L218.851 0.829369L232.764 0.747465C245.938 0.698323 246.711 0.714704 246.711 1.1406C246.678 1.40269 246.184 2.87695 245.543 4.41674L244.392 7.23421L239.984 7.31612L235.544 7.36526L230.544 19.2904C227.765 25.8427 225.331 31.3466 225.1 31.5268C224.607 31.9199 216.647 31.969 216.384 31.5923Z" fill="white"/>
</svg>
