<svg width="1089" height="165" viewBox="0 0 1089 165" fill="none" xmlns="http://www.w3.org/2000/svg">
<g opacity="0.1">
<g opacity="0.75">
<path opacity="0.75" d="M14.3385 163.042C13.9803 162.114 23.4367 138.353 35.2572 110.168C47.0777 81.9834 56.8923 58.3651 56.8923 57.5802C56.8923 56.7953 54.5998 50.5161 51.6626 43.6661C48.7254 36.7448 46.4329 30.6797 46.4329 30.1088C46.4329 29.538 74.1574 29.0385 113.416 29.0385C180.184 29.0385 180.327 29.0385 179.611 31.3218C179.181 32.6062 176.602 39.0995 173.879 45.5927L169.008 57.5089L133.188 58.0797L97.3685 58.6505L92.8553 68.9255C90.2762 74.6339 88.342 79.7 88.342 80.2709C88.342 80.699 100.306 81.1985 114.992 81.1985C130.036 81.1985 142 81.6266 142.358 82.2688C142.788 82.8396 140.639 89.1901 137.487 96.5396L131.827 109.597L103.53 110.168L75.1603 110.739L70.7187 121.085C68.1397 126.794 66.2054 131.646 66.2054 131.86C66.2054 132.003 80.7482 132.288 98.4431 132.431L130.538 132.788L136.842 147.629C140.209 155.764 142.788 162.899 142.43 163.47C142 164.183 117.284 164.612 78.3125 164.612C24.5829 164.683 14.9116 164.469 14.3385 163.042Z" fill="#B0B0B0"/>
<path opacity="0.75" d="M154.109 163.616C153.679 162.688 207.05 34.8929 209.701 30.6116C210.847 28.7564 248.887 28.3997 248.887 30.2549C248.887 30.8257 239.718 53.0882 228.399 79.7033C217.08 106.39 207.695 129.08 207.337 130.222C206.763 132.077 208.483 132.22 233.485 132.22C248.744 132.22 260.565 132.648 261.066 133.29C261.997 134.932 251.395 161.547 249.174 163.331C246.81 165.043 155.255 165.4 154.109 163.616Z" fill="#B0B0B0"/>
<path opacity="0.75" d="M262.138 163.185C261.78 162.258 271.308 138.639 283.2 110.597C295.092 82.5549 304.692 58.6512 304.692 57.6522C304.692 56.7246 302.614 50.5882 300.035 44.2376C297.456 37.8871 295.379 31.822 295.379 30.8944C295.379 29.3959 303.904 29.1819 360.857 29.1819C396.892 29.1819 426.694 29.5387 427.195 29.8954C427.912 30.609 424.401 40.4559 419.53 51.5871L416.521 58.2231H381.131H345.67L340.941 68.9262C338.291 74.8486 336.141 80.0575 336.141 80.4856C336.141 80.8424 348.463 81.1991 363.508 81.1991C381.991 81.1991 390.874 81.5559 390.874 82.4835C390.874 83.9819 381.418 106.815 380.056 108.671C379.268 109.741 371.531 110.169 351.114 110.383L323.175 110.74L318.733 121.158L314.291 131.575L346.386 132.146L378.48 132.717L384.641 147.059C388.152 154.908 390.659 162.115 390.373 163.042C389.441 165.397 263.069 165.397 262.138 163.185Z" fill="#B0B0B0"/>
<path opacity="0.75" d="M407.711 163.615C407.353 163.044 417.025 138.926 429.203 110.099L451.34 57.5826L446.11 45.0956C443.173 38.2456 440.88 31.8951 440.88 30.8248C440.88 29.1836 446.325 29.1123 492.747 29.3263L544.614 29.6831L548.483 34.1071C551.85 37.9602 552.423 38.1742 553.713 36.6758C554.644 35.6055 557.581 33.5362 560.232 31.8951L565.246 28.9695L606.582 29.3263C646.127 29.6831 647.99 29.7544 651.142 32.1091C652.861 33.3935 655.297 36.2477 656.515 38.4597C660.097 45.3097 658.593 51.6602 646.844 79.7024C640.898 93.6165 630.582 117.948 623.919 133.932C617.185 149.772 611.096 163.258 610.451 163.686C609.663 164.115 600.995 164.614 591.252 164.614C577.497 164.614 573.342 164.257 572.84 163.116C572.482 162.188 581.222 140.425 592.183 114.595C603 88.6217 611.955 66.1451 611.955 64.6467C611.955 59.0811 608.445 58.0107 590.32 58.0107H573.772L570.261 66.4305C548.626 117.877 529.069 162.973 527.922 163.758C527.134 164.186 518.394 164.685 508.58 164.685C495.183 164.685 490.67 164.329 490.168 163.187C489.953 162.402 498.55 140.924 509.224 115.451C520.042 89.9775 529.212 68.0717 529.713 66.6446C530.143 65.0035 529.57 63.1483 527.994 61.2217C525.701 58.0821 525.558 58.0821 508.938 58.0821C497.046 58.0821 492.103 58.5102 491.171 59.5805C490.598 60.2941 480.497 83.6983 468.82 111.384C457.071 139.069 446.683 162.473 445.752 163.33C443.531 164.899 408.858 165.256 407.711 163.615Z" fill="#B0B0B0"/>
<path opacity="0.75" d="M635.881 163.614C635.451 163.043 645.194 138.925 657.301 110.098L679.509 57.5811L674.136 44.9514C671.199 38.0301 668.906 31.5368 668.906 30.6806C668.906 29.3248 679.509 29.0394 735.244 29.0394C777.798 29.0394 801.583 29.4676 801.583 30.1811C801.583 31.8936 792.269 54.8697 790.908 56.5822C789.977 57.6525 781.38 57.9379 754.945 57.9379C728.51 57.9379 720.057 58.2947 719.341 59.4363C718.911 60.1499 716.403 65.216 714.111 70.7103L709.956 80.5572L737.179 80.914C760.82 81.128 764.402 81.3421 764.402 82.9832C764.402 85.0525 756.736 103.819 754.372 107.529C752.724 110.098 752.366 110.098 725.072 110.098H697.347L693.049 120.302C690.756 125.867 688.75 130.862 688.75 131.29C688.75 131.718 702.863 132.075 720.057 132.075C743.698 132.075 751.578 132.432 752.51 133.573C754.945 136.57 764.617 161.188 763.9 162.757C763.327 164.256 755.089 164.47 699.926 164.47C662.889 164.684 636.239 164.184 635.881 163.614Z" fill="#B0B0B0"/>
<path opacity="0.75" d="M782.384 163.544C782.026 162.973 791.697 138.856 803.804 110.1L825.941 57.7259L820.855 45.0962C817.917 38.1748 815.625 31.7529 815.625 30.8253C815.625 29.3269 823.792 29.1128 874.727 29.1128C939.06 29.1128 941.28 29.3269 947.226 35.606C949.662 38.1748 950.02 39.7446 950.02 46.88C950.02 55.0857 949.662 56.0133 927.454 108.53C914.989 137.857 904.1 162.545 903.168 163.33C900.876 165.043 866.202 165.328 865.128 163.544C864.698 162.831 873.653 140.497 884.757 113.739C903.025 70.641 905.102 64.9326 903.956 62.4352C902.237 58.5107 900.374 58.154 881.82 58.154H865.987L844.137 109.957C832.03 138.57 821.428 162.545 820.425 163.402C818.204 165.043 783.53 165.257 782.384 163.544Z" fill="#B0B0B0"/>
<path opacity="0.75" d="M956.897 163.616C956.539 162.902 966.067 139.07 978.174 110.528L1000.17 58.5821L978.174 58.2253C966.21 58.0826 956.324 57.5118 956.324 57.0837C956.324 56.6555 958.903 50.2337 961.912 42.9555L967.643 29.6123L1028.25 29.2555C1085.63 29.0415 1089 29.1128 1089 30.968C1088.86 32.1097 1086.71 38.5316 1083.91 45.2389L1078.9 57.5118L1059.7 57.8686L1040.36 58.0826L1018.58 110.029C1006.47 138.57 995.869 162.545 994.866 163.33C992.717 165.043 958.043 165.257 956.897 163.616Z" fill="#B0B0B0"/>
</g>
<path d="M0.00985041 134.501C-0.348347 133.573 9.10806 109.812 20.9286 81.6273C32.7491 53.4424 42.5637 29.8241 42.5637 29.0392C42.5637 28.2543 40.2712 21.9751 37.334 15.1251C34.3968 8.20376 32.1043 2.13865 32.1043 1.56781C32.1043 0.996978 59.8288 0.497498 99.0872 0.497498C165.855 0.497498 165.998 0.497498 165.282 2.78084C164.852 4.06521 162.273 10.5585 159.551 17.0517L154.679 28.9679L118.86 29.5387L83.0399 30.1095L78.5266 40.3846C75.9476 46.0929 74.0134 51.159 74.0134 51.7299C74.0134 52.158 85.9771 52.6575 100.663 52.6575C115.708 52.6575 127.671 53.0856 128.029 53.7278C128.459 54.2986 126.31 60.6492 123.158 67.9987L117.498 81.0565L89.2009 81.6273L60.9034 82.2695L56.4617 92.6159C53.8827 98.3242 51.9484 103.176 51.9484 103.39C51.9484 103.533 66.4912 103.819 84.1862 103.961L116.281 104.318L122.585 119.16C125.952 127.294 128.531 134.43 128.173 135C127.743 135.714 103.027 136.142 64.0555 136.142C10.2543 136.142 0.582966 135.928 0.00985041 134.501Z" fill="white"/>
<path d="M139.78 135.075C139.35 134.147 192.721 6.35181 195.372 2.07055C196.518 0.215345 234.559 -0.141426 234.559 1.71378C234.559 2.28462 225.389 24.5471 214.07 51.1623C202.751 77.8487 193.366 100.539 193.008 101.681C192.435 103.536 194.154 103.679 219.156 103.679C234.416 103.679 246.236 104.107 246.738 104.749C247.669 106.39 237.066 133.006 234.845 134.789C232.481 136.502 140.926 136.859 139.78 135.075Z" fill="white"/>
<path d="M247.809 134.644C247.451 133.717 256.979 110.098 268.871 82.0561C280.764 54.0139 290.363 30.1102 290.363 29.1112C290.363 28.1836 288.286 22.0472 285.707 15.6966C283.128 9.3461 281.05 3.28098 281.05 2.35337C281.05 0.854932 289.575 0.640869 346.528 0.640869C382.563 0.640869 412.365 0.997641 412.867 1.35441C413.583 2.06796 410.073 11.9149 405.201 23.0461L402.192 29.6821H366.802H331.341L326.613 40.3852C323.962 46.3076 321.813 51.5165 321.813 51.9446C321.813 52.3014 334.135 52.6582 349.179 52.6582C367.662 52.6582 376.545 53.0149 376.545 53.9425C376.545 55.441 367.089 78.2744 365.728 80.1296C364.94 81.1999 357.203 81.628 336.786 81.8421L308.846 82.1988L304.405 92.6166L299.963 103.034L332.057 103.605L364.152 104.176L370.313 118.518C373.823 126.367 376.331 133.574 376.044 134.502C375.113 136.856 248.741 136.856 247.809 134.644Z" fill="white"/>
<path d="M393.383 135.074C393.025 134.503 402.696 110.385 414.875 81.5583L437.011 29.0415L431.782 16.5545C428.844 9.70452 426.552 3.35399 426.552 2.28368C426.552 0.642529 431.996 0.571175 478.419 0.785238L530.286 1.14201L534.154 5.56597C537.521 9.4191 538.094 9.63317 539.384 8.13473C540.315 7.06441 543.252 4.99514 545.903 3.35399L550.918 0.428467L592.254 0.785238C631.799 1.14201 633.661 1.21336 636.814 3.56805C638.533 4.85243 640.969 7.7066 642.186 9.91858C645.768 16.7686 644.264 23.1191 632.515 51.1613C626.569 65.0754 616.253 89.4072 609.591 105.391C602.856 121.231 596.767 134.717 596.122 135.145C595.334 135.573 586.666 136.073 576.923 136.073C563.168 136.073 559.013 135.716 558.512 134.574C558.153 133.647 566.893 111.884 577.854 86.0536C588.672 60.0806 597.627 37.604 597.627 36.1056C597.627 30.54 594.116 29.4696 575.992 29.4696H559.443L555.933 37.8895C534.298 89.3359 514.74 134.432 513.594 135.217C512.806 135.645 504.066 136.144 494.251 136.144C480.854 136.144 476.341 135.787 475.84 134.646C475.625 133.861 484.222 112.383 494.896 86.9098C505.713 61.4364 514.883 39.5306 515.385 38.1035C515.815 36.4624 515.241 34.6072 513.665 32.6806C511.373 29.541 511.23 29.541 494.609 29.541C482.717 29.541 477.774 29.9691 476.843 31.0394C476.27 31.753 466.168 55.1572 454.491 82.8426C442.742 110.528 432.355 133.932 431.423 134.789C429.202 136.358 394.529 136.715 393.383 135.074Z" fill="white"/>
<path d="M621.552 135.072C621.122 134.502 630.865 110.384 642.972 81.5567L665.18 29.04L659.807 16.4103C656.87 9.48898 654.578 2.99575 654.578 2.1395C654.578 0.783769 665.18 0.498352 720.916 0.498352C763.47 0.498352 787.254 0.926477 787.254 1.64002C787.254 3.35252 777.941 26.3286 776.58 28.0411C775.648 29.1114 767.052 29.3968 740.617 29.3968C714.182 29.3968 705.728 29.7536 705.012 30.8952C704.51 31.6801 702.075 36.8176 699.711 42.2406L695.556 52.0874L722.779 52.4442C746.42 52.6583 750.001 52.8723 750.001 54.5135C750.001 56.5827 742.336 75.3489 739.972 79.0593C738.324 81.6281 737.966 81.6281 710.671 81.6281H682.947L678.649 91.8317C676.356 97.3973 674.35 102.392 674.35 102.82C674.35 103.248 688.463 103.605 705.657 103.605C729.298 103.605 737.178 103.962 738.109 105.104C740.545 108.1 750.216 132.718 749.5 134.287C748.927 135.786 740.688 136 685.526 136C648.56 136.143 621.91 135.643 621.552 135.072Z" fill="white"/>
<path d="M768.056 135.003C767.697 134.432 777.369 110.315 789.476 81.5588L811.612 29.1848L806.526 16.5551C803.589 9.63376 801.296 3.21188 801.296 2.28428C801.296 0.78584 809.463 0.571777 860.399 0.571777C924.731 0.571777 926.952 0.78584 932.898 7.06501C935.334 9.63376 935.692 11.2036 935.692 18.339C935.692 26.5447 935.334 27.4723 913.125 79.989C900.66 109.316 889.771 134.004 888.84 134.789C886.547 136.502 851.874 136.787 850.799 135.003C850.369 134.29 859.324 111.956 870.428 85.1979C888.696 42.0999 890.774 36.3916 889.628 33.8942C887.908 29.9697 886.046 29.6129 867.491 29.6129H851.659L829.809 81.4161C817.702 110.029 807.099 134.004 806.096 134.86C803.875 136.502 769.202 136.716 768.056 135.003Z" fill="white"/>
<path d="M942.568 135.074C942.21 134.361 951.738 110.529 963.845 81.9869L985.839 30.041L963.845 29.6842C951.882 29.5415 941.995 28.9707 941.995 28.5425C941.995 28.1144 944.574 21.6925 947.583 14.4144L953.314 1.07115L1013.92 0.714379C1071.3 0.500316 1074.67 0.57167 1074.67 2.42688C1074.53 3.56855 1072.38 9.99043 1069.59 16.6977L1064.57 28.9707L1045.37 29.3274L1026.03 29.5415L1004.25 81.4874C992.143 110.029 981.54 134.004 980.537 134.789C978.388 136.502 943.715 136.716 942.568 135.074Z" fill="white"/>
</g>
</svg>
