<svg width="231" height="32" viewBox="0 0 231 32" fill="none" xmlns="http://www.w3.org/2000/svg">
<path d="M12.176 11.0016V14.5376H11.072V12.0256H1.296L1.28 14.5376H0.176L0.192 11.0016H0.752C1.488 10.959 2 10.3776 2.288 9.25763C2.576 8.12697 2.752 6.52697 2.816 4.45763L2.944 0.825634H10.496V11.0016H12.176ZM3.872 4.56963C3.81867 6.2763 3.68533 7.6843 3.472 8.79363C3.26933 9.8923 2.92267 10.6283 2.432 11.0016H9.328V1.84963H3.968L3.872 4.56963ZM14.3191 3.60963H15.4551V10.2976L21.0711 3.60963H22.0791V12.0256H20.9431V5.33763L15.3431 12.0256H14.3191V3.60963ZM29.2589 7.64163C29.8562 7.7803 30.3149 8.0203 30.6349 8.36163C30.9655 8.70297 31.1309 9.11897 31.1309 9.60963C31.1309 10.1003 30.9602 10.5376 30.6189 10.9216C30.2882 11.3056 29.8349 11.6043 29.2589 11.8176C28.6829 12.0203 28.0482 12.1216 27.3549 12.1216C26.7469 12.1216 26.1495 12.0363 25.5629 11.8656C24.9762 11.6843 24.4642 11.423 24.0269 11.0816L24.4109 10.2336C24.7949 10.5216 25.2429 10.7456 25.7549 10.9056C26.2669 11.0656 26.7842 11.1456 27.3069 11.1456C28.0855 11.1456 28.7202 11.0016 29.2109 10.7136C29.7122 10.415 29.9629 10.015 29.9629 9.51363C29.9629 9.06563 29.7602 8.71897 29.3549 8.47363C28.9495 8.21763 28.3949 8.08963 27.6909 8.08963H26.2509V7.25763H27.6269C28.2562 7.25763 28.7629 7.1403 29.1469 6.90563C29.5309 6.6603 29.7229 6.33497 29.7229 5.92963C29.7229 5.48163 29.5042 5.12963 29.0669 4.87363C28.6402 4.61763 28.0802 4.48963 27.3869 4.48963C26.4802 4.48963 25.5842 4.71897 24.6989 5.17763L24.3789 4.29763C25.3815 3.77497 26.4215 3.51363 27.4989 3.51363C28.1389 3.51363 28.7149 3.60963 29.2269 3.80163C29.7495 3.98297 30.1549 4.2443 30.4429 4.58563C30.7415 4.92697 30.8909 5.32163 30.8909 5.76963C30.8909 6.1963 30.7415 6.57497 30.4429 6.90563C30.1549 7.2363 29.7602 7.48163 29.2589 7.64163ZM36.6058 3.54563C37.7044 3.54563 38.5471 3.82297 39.1338 4.37763C39.7204 4.92163 40.0138 5.7323 40.0138 6.80963V12.0256H38.9258V10.7136C38.6698 11.151 38.2911 11.4923 37.7898 11.7376C37.2991 11.983 36.7124 12.1056 36.0298 12.1056C35.0911 12.1056 34.3444 11.8816 33.7898 11.4336C33.2351 10.9856 32.9578 10.3936 32.9578 9.65763C32.9578 8.94297 33.2138 8.36697 33.7258 7.92963C34.2484 7.4923 35.0751 7.27363 36.2057 7.27363H38.8778V6.76163C38.8778 6.0363 38.6751 5.48697 38.2698 5.11363C37.8644 4.72963 37.2724 4.53763 36.4938 4.53763C35.9604 4.53763 35.4484 4.6283 34.9578 4.80963C34.4671 4.9803 34.0458 5.2203 33.6938 5.52963L33.1818 4.68163C33.6084 4.31897 34.1204 4.04163 34.7178 3.84963C35.3151 3.64697 35.9444 3.54563 36.6058 3.54563ZM36.2057 11.2096C36.8458 11.2096 37.3951 11.0656 37.8538 10.7776C38.3124 10.479 38.6538 10.0523 38.8778 9.49763V8.12163H36.2378C34.7978 8.12163 34.0778 8.62297 34.0778 9.62563C34.0778 10.1163 34.2644 10.5056 34.6378 10.7936C35.0111 11.071 35.5338 11.2096 36.2057 11.2096ZM43.0379 3.60963H44.1739V10.2976L49.7899 3.60963H50.7979V12.0256H49.6619V5.33763L44.0619 12.0256H43.0379V3.60963ZM46.8619 2.39363C46.1365 2.39363 45.5605 2.2123 45.1339 1.84963C44.7072 1.48697 44.4885 0.974968 44.4779 0.313634H45.2939C45.3045 0.729634 45.4539 1.06563 45.7419 1.32163C46.0299 1.56697 46.4032 1.68963 46.8619 1.68963C47.3205 1.68963 47.6939 1.56697 47.9819 1.32163C48.2805 1.06563 48.4352 0.729634 48.4459 0.313634H49.2619C49.2512 0.974968 49.0272 1.48697 48.5899 1.84963C48.1632 2.2123 47.5872 2.39363 46.8619 2.39363ZM54.0535 3.60963H55.1895V7.33763H60.4855V3.60963H61.6215V12.0256H60.4855V8.31363H55.1895V12.0256H54.0535V3.60963ZM69.0379 3.60963H70.1739V10.2976L75.7899 3.60963H76.7979V12.0256H75.6619V5.33763L70.0619 12.0256H69.0379V3.60963ZM5.952 19.5456C6.74133 19.5456 7.456 19.727 8.096 20.0896C8.736 20.4416 9.23733 20.943 9.6 21.5936C9.96267 22.2443 10.144 22.9856 10.144 23.8176C10.144 24.6603 9.96267 25.407 9.6 26.0576C9.23733 26.7083 8.736 27.215 8.096 27.5776C7.46667 27.9296 6.752 28.1056 5.952 28.1056C5.26933 28.1056 4.65067 27.967 4.096 27.6896C3.552 27.4016 3.104 26.9856 2.752 26.4416V31.1296H1.616V19.6096H2.704V21.2736C3.04533 20.719 3.49333 20.2923 4.048 19.9936C4.61333 19.695 5.248 19.5456 5.952 19.5456ZM5.872 27.0976C6.45867 27.0976 6.992 26.9643 7.472 26.6976C7.952 26.4203 8.32533 26.031 8.592 25.5296C8.86933 25.0283 9.008 24.4576 9.008 23.8176C9.008 23.1776 8.86933 22.6123 8.592 22.1216C8.32533 21.6203 7.952 21.231 7.472 20.9536C6.992 20.6763 6.45867 20.5376 5.872 20.5376C5.27467 20.5376 4.736 20.6763 4.256 20.9536C3.78667 21.231 3.41333 21.6203 3.136 22.1216C2.86933 22.6123 2.736 23.1776 2.736 23.8176C2.736 24.4576 2.86933 25.0283 3.136 25.5296C3.41333 26.031 3.78667 26.4203 4.256 26.6976C4.736 26.9643 5.27467 27.0976 5.872 27.0976ZM15.4339 19.5456C16.5325 19.5456 17.3752 19.823 17.9619 20.3776C18.5485 20.9216 18.8419 21.7323 18.8419 22.8096V28.0256H17.7539V26.7136C17.4979 27.151 17.1192 27.4923 16.6179 27.7376C16.1272 27.983 15.5405 28.1056 14.8579 28.1056C13.9192 28.1056 13.1725 27.8816 12.6179 27.4336C12.0632 26.9856 11.7859 26.3936 11.7859 25.6576C11.7859 24.943 12.0419 24.367 12.5539 23.9296C13.0765 23.4923 13.9032 23.2736 15.0339 23.2736H17.7059V22.7616C17.7059 22.0363 17.5032 21.487 17.0979 21.1136C16.6925 20.7296 16.1005 20.5376 15.3219 20.5376C14.7885 20.5376 14.2765 20.6283 13.7859 20.8096C13.2952 20.9803 12.8739 21.2203 12.5219 21.5296L12.0099 20.6816C12.4365 20.319 12.9485 20.0416 13.5459 19.8496C14.1432 19.647 14.7725 19.5456 15.4339 19.5456ZM15.0339 27.2096C15.6739 27.2096 16.2232 27.0656 16.6819 26.7776C17.1405 26.479 17.4819 26.0523 17.7059 25.4976V24.1216H15.0659C13.6259 24.1216 12.9059 24.623 12.9059 25.6256C12.9059 26.1163 13.0925 26.5056 13.4659 26.7936C13.8392 27.071 14.3619 27.2096 15.0339 27.2096ZM25.7901 23.6416C26.3875 23.7803 26.8461 24.0203 27.1661 24.3616C27.4968 24.703 27.6621 25.119 27.6621 25.6096C27.6621 26.1003 27.4915 26.5376 27.1501 26.9216C26.8195 27.3056 26.3661 27.6043 25.7901 27.8176C25.2141 28.0203 24.5795 28.1216 23.8861 28.1216C23.2781 28.1216 22.6808 28.0363 22.0941 27.8656C21.5075 27.6843 20.9955 27.423 20.5581 27.0816L20.9421 26.2336C21.3261 26.5216 21.7741 26.7456 22.2861 26.9056C22.7981 27.0656 23.3155 27.1456 23.8381 27.1456C24.6168 27.1456 25.2515 27.0016 25.7421 26.7136C26.2435 26.415 26.4941 26.015 26.4941 25.5136C26.4941 25.0656 26.2915 24.719 25.8861 24.4736C25.4808 24.2176 24.9261 24.0896 24.2221 24.0896H22.7821V23.2576H24.1581C24.7875 23.2576 25.2941 23.1403 25.6781 22.9056C26.0621 22.6603 26.2541 22.335 26.2541 21.9296C26.2541 21.4816 26.0355 21.1296 25.5981 20.8736C25.1715 20.6176 24.6115 20.4896 23.9181 20.4896C23.0115 20.4896 22.1155 20.719 21.2301 21.1776L20.9101 20.2976C21.9128 19.775 22.9528 19.5136 24.0301 19.5136C24.6701 19.5136 25.2461 19.6096 25.7581 19.8016C26.2808 19.983 26.6861 20.2443 26.9741 20.5856C27.2728 20.927 27.4221 21.3216 27.4221 21.7696C27.4221 22.1963 27.2728 22.575 26.9741 22.9056C26.6861 23.2363 26.2915 23.4816 25.7901 23.6416ZM34.577 19.5456C35.3663 19.5456 36.081 19.727 36.721 20.0896C37.361 20.4416 37.8623 20.943 38.225 21.5936C38.5877 22.2443 38.769 22.9856 38.769 23.8176C38.769 24.6603 38.5877 25.407 38.225 26.0576C37.8623 26.7083 37.361 27.215 36.721 27.5776C36.0917 27.9296 35.377 28.1056 34.577 28.1056C33.8943 28.1056 33.2757 27.967 32.721 27.6896C32.177 27.4016 31.729 26.9856 31.377 26.4416V31.1296H30.241V19.6096H31.329V21.2736C31.6703 20.719 32.1183 20.2923 32.673 19.9936C33.2383 19.695 33.873 19.5456 34.577 19.5456ZM34.497 27.0976C35.0837 27.0976 35.617 26.9643 36.097 26.6976C36.577 26.4203 36.9503 26.031 37.217 25.5296C37.4943 25.0283 37.633 24.4576 37.633 23.8176C37.633 23.1776 37.4943 22.6123 37.217 22.1216C36.9503 21.6203 36.577 21.231 36.097 20.9536C35.617 20.6763 35.0837 20.5376 34.497 20.5376C33.8997 20.5376 33.361 20.6763 32.881 20.9536C32.4117 21.231 32.0383 21.6203 31.761 22.1216C31.4943 22.6123 31.361 23.1776 31.361 23.8176C31.361 24.4576 31.4943 25.0283 31.761 25.5296C32.0383 26.031 32.4117 26.4203 32.881 26.6976C33.361 26.9643 33.8997 27.0976 34.497 27.0976ZM44.0589 19.5456C45.1575 19.5456 46.0002 19.823 46.5869 20.3776C47.1735 20.9216 47.4669 21.7323 47.4669 22.8096V28.0256H46.3789V26.7136C46.1229 27.151 45.7442 27.4923 45.2429 27.7376C44.7522 27.983 44.1655 28.1056 43.4829 28.1056C42.5442 28.1056 41.7975 27.8816 41.2429 27.4336C40.6882 26.9856 40.4109 26.3936 40.4109 25.6576C40.4109 24.943 40.6669 24.367 41.1789 23.9296C41.7015 23.4923 42.5282 23.2736 43.6589 23.2736H46.3309V22.7616C46.3309 22.0363 46.1282 21.487 45.7229 21.1136C45.3175 20.7296 44.7255 20.5376 43.9469 20.5376C43.4135 20.5376 42.9015 20.6283 42.4109 20.8096C41.9202 20.9803 41.4989 21.2203 41.1469 21.5296L40.6349 20.6816C41.0615 20.319 41.5735 20.0416 42.1709 19.8496C42.7682 19.647 43.3975 19.5456 44.0589 19.5456ZM43.6589 27.2096C44.2989 27.2096 44.8482 27.0656 45.3069 26.7776C45.7655 26.479 46.1069 26.0523 46.3309 25.4976V24.1216H43.6909C42.2509 24.1216 41.5309 24.623 41.5309 25.6256C41.5309 26.1163 41.7175 26.5056 42.0909 26.7936C42.4642 27.071 42.9869 27.2096 43.6589 27.2096ZM54.571 19.8176C55.3497 19.8176 56.043 19.9936 56.651 20.3456C57.2697 20.687 57.7497 21.1723 58.091 21.8016C58.4323 22.4203 58.603 23.1296 58.603 23.9296C58.603 24.751 58.4217 25.4816 58.059 26.1216C57.707 26.751 57.211 27.2416 56.571 27.5936C55.931 27.9456 55.195 28.1216 54.363 28.1216C52.9657 28.1216 51.883 27.631 51.115 26.6496C50.347 25.6683 49.963 24.3136 49.963 22.5856C49.963 20.783 50.3043 19.4016 50.987 18.4416C51.6803 17.4816 52.7577 16.831 54.219 16.4896L57.995 15.6256L58.187 16.6656L54.635 17.4816C53.4297 17.7483 52.5443 18.223 51.979 18.9056C51.4137 19.5776 51.1043 20.575 51.051 21.8976C51.3923 21.247 51.867 20.7403 52.475 20.3776C53.083 20.0043 53.7817 19.8176 54.571 19.8176ZM54.395 27.1776C54.9817 27.1776 55.5043 27.0443 55.963 26.7776C56.4323 26.5003 56.795 26.1163 57.051 25.6256C57.3177 25.135 57.451 24.5803 57.451 23.9616C57.451 23.343 57.323 22.799 57.067 22.3296C56.811 21.8603 56.4483 21.4976 55.979 21.2416C55.5203 20.975 54.9923 20.8416 54.395 20.8416C53.7977 20.8416 53.2643 20.975 52.795 21.2416C52.3363 21.4976 51.9737 21.8603 51.707 22.3296C51.451 22.799 51.323 23.343 51.323 23.9616C51.323 24.5803 51.451 25.135 51.707 25.6256C51.9737 26.1163 52.3417 26.5003 52.811 26.7776C53.2803 27.0443 53.8083 27.1776 54.395 27.1776ZM64.5099 28.1056C63.6992 28.1056 62.9685 27.9243 62.3179 27.5616C61.6672 27.1883 61.1552 26.6763 60.7819 26.0256C60.4085 25.375 60.2219 24.639 60.2219 23.8176C60.2219 22.9963 60.4085 22.2603 60.7819 21.6096C61.1552 20.959 61.6672 20.4523 62.3179 20.0896C62.9685 19.727 63.6992 19.5456 64.5099 19.5456C65.3205 19.5456 66.0512 19.727 66.7019 20.0896C67.3525 20.4523 67.8592 20.959 68.2219 21.6096C68.5952 22.2603 68.7819 22.9963 68.7819 23.8176C68.7819 24.639 68.5952 25.375 68.2219 26.0256C67.8592 26.6763 67.3525 27.1883 66.7019 27.5616C66.0512 27.9243 65.3205 28.1056 64.5099 28.1056ZM64.5099 27.0976C65.1072 27.0976 65.6405 26.9643 66.1099 26.6976C66.5899 26.4203 66.9632 26.031 67.2299 25.5296C67.4965 25.0283 67.6299 24.4576 67.6299 23.8176C67.6299 23.1776 67.4965 22.607 67.2299 22.1056C66.9632 21.6043 66.5899 21.2203 66.1099 20.9536C65.6405 20.6763 65.1072 20.5376 64.5099 20.5376C63.9125 20.5376 63.3739 20.6763 62.8939 20.9536C62.4245 21.2203 62.0512 21.6043 61.7739 22.1056C61.5072 22.607 61.3739 23.1776 61.3739 23.8176C61.3739 24.4576 61.5072 25.0283 61.7739 25.5296C62.0512 26.031 62.4245 26.4203 62.8939 26.6976C63.3739 26.9643 63.9125 27.0976 64.5099 27.0976ZM76.8173 20.6176H73.6333V28.0256H72.4973V20.6176H69.3133V19.6096H76.8173V20.6176ZM81.5158 24.2816H79.5958V28.0256H78.4598V19.6096H79.5958V23.3056H81.5318L84.4918 19.6096H85.7238L82.4118 23.6896L85.9638 28.0256H84.6198L81.5158 24.2816ZM90.4964 19.5456C91.595 19.5456 92.4377 19.823 93.0244 20.3776C93.611 20.9216 93.9044 21.7323 93.9044 22.8096V28.0256H92.8164V26.7136C92.5604 27.151 92.1817 27.4923 91.6804 27.7376C91.1897 27.983 90.603 28.1056 89.9204 28.1056C88.9817 28.1056 88.235 27.8816 87.6804 27.4336C87.1257 26.9856 86.8484 26.3936 86.8484 25.6576C86.8484 24.943 87.1044 24.367 87.6164 23.9296C88.139 23.4923 88.9657 23.2736 90.0964 23.2736H92.7684V22.7616C92.7684 22.0363 92.5657 21.487 92.1604 21.1136C91.755 20.7296 91.163 20.5376 90.3844 20.5376C89.851 20.5376 89.339 20.6283 88.8484 20.8096C88.3577 20.9803 87.9364 21.2203 87.5844 21.5296L87.0724 20.6816C87.499 20.319 88.011 20.0416 88.6084 19.8496C89.2057 19.647 89.835 19.5456 90.4964 19.5456ZM90.0964 27.2096C90.7364 27.2096 91.2857 27.0656 91.7444 26.7776C92.203 26.479 92.5444 26.0523 92.7684 25.4976V24.1216H90.1284C88.6884 24.1216 87.9684 24.623 87.9684 25.6256C87.9684 26.1163 88.155 26.5056 88.5284 26.7936C88.9017 27.071 89.4244 27.2096 90.0964 27.2096Z" fill="white"/>
<g clip-path="url(#clip0)">
<path d="M106.33 17.5443C106.774 18.2411 107.44 18.8507 108.372 19.2862C109.26 19.7216 110.237 19.9393 111.302 19.9393C111.835 19.9393 112.368 19.8958 112.856 19.7652C113.345 19.6345 113.744 19.4603 114.144 19.2426C114.499 19.0249 114.81 18.7636 114.988 18.4588C115.21 18.154 115.298 17.8491 115.298 17.5008C115.298 16.9782 115.032 16.4992 114.455 16.1509C113.878 15.8025 113.167 15.4541 112.279 15.1493C111.391 14.8445 110.459 14.5397 109.482 14.2348C108.461 13.93 107.529 13.5381 106.685 13.1026C105.797 12.6236 105.087 12.1011 104.51 11.4044C103.932 10.7512 103.666 9.88025 103.666 8.87869C103.666 8.05132 103.888 7.2675 104.288 6.52722C104.687 5.83048 105.264 5.17729 105.975 4.65474C106.596 4.13219 107.44 3.74028 108.417 3.43546C109.393 3.13064 110.459 3 111.613 3C113.478 3 115.121 3.39191 116.586 4.13219C118.007 4.87247 118.983 5.91757 119.516 7.1804L116.497 8.92224C116.142 8.22551 115.565 7.70295 114.721 7.31104C113.922 6.91913 112.945 6.74495 111.88 6.74495C110.77 6.74495 109.882 6.91913 109.171 7.31104C108.461 7.70295 108.106 8.18196 108.061 8.74806C108.061 9.18351 108.372 9.53188 108.949 9.8367C109.527 10.1415 110.281 10.4028 111.125 10.7076C112.013 10.9689 112.945 11.2737 113.966 11.6221C114.988 11.9269 115.92 12.3624 116.808 12.8414C117.696 13.3204 118.406 13.93 118.983 14.6703C119.561 15.4106 119.871 16.325 119.871 17.4137C119.871 18.2846 119.649 19.1555 119.25 19.9393C118.806 20.7232 118.229 21.3764 117.474 21.986C116.719 22.5521 115.831 22.9876 114.81 23.3359C113.789 23.6407 112.679 23.8149 111.436 23.8149C109.571 23.8149 107.884 23.423 106.419 22.6827C104.954 21.8989 103.844 20.8538 103.089 19.5474L106.33 17.5443Z" fill="white"/>
<path d="M135.544 23.6841C134.256 23.6841 133.058 23.4664 131.903 22.9874C130.793 22.5084 129.817 21.8116 128.973 20.8972V30.9998H124.444V3.47883H129.017V5.9174C129.905 4.95939 130.882 4.26265 132.036 3.78365C133.146 3.30464 134.345 3.08691 135.588 3.08691C136.965 3.08691 138.252 3.34819 139.451 3.91429C140.65 4.48038 141.715 5.22066 142.648 6.13513C143.58 7.09314 144.29 8.18178 144.823 9.44461C145.356 10.7074 145.622 12.0574 145.622 13.4944C145.622 14.8878 145.356 16.1942 144.823 17.4571C144.29 18.6763 143.58 19.765 142.692 20.723C141.804 21.6375 140.738 22.3777 139.495 22.9003C138.252 23.4228 136.965 23.6841 135.544 23.6841ZM129.017 13.3637C129.017 14.2347 129.195 15.0185 129.506 15.8023C129.817 16.5426 130.261 17.1958 130.793 17.7619C131.326 18.328 131.992 18.7634 132.702 19.0683C133.413 19.3731 134.212 19.5473 135.056 19.5473C135.899 19.5473 136.698 19.3731 137.453 19.0683C138.163 18.7634 138.829 18.328 139.362 17.7619C139.895 17.1958 140.339 16.5426 140.65 15.7588C140.96 14.9749 141.138 14.1911 141.138 13.3202C141.138 12.4493 141.005 11.6655 140.694 10.8816C140.383 10.1413 139.984 9.48816 139.451 8.92206C138.918 8.35597 138.297 7.96405 137.542 7.65923C136.831 7.35441 136.032 7.18023 135.144 7.18023C134.301 7.18023 133.502 7.35441 132.747 7.65923C131.992 7.96405 131.37 8.39951 130.838 8.96561C130.305 9.5317 129.861 10.1849 129.55 10.9252C129.151 11.6655 129.017 12.4928 129.017 13.3637Z" fill="white"/>
<path d="M158.587 3.08691C159.874 3.08691 161.073 3.30464 162.227 3.78365C163.337 4.26265 164.314 4.95939 165.157 5.87385V3.43528H169.73V23.3357H165.157V20.8536C164.27 21.8116 163.293 22.5084 162.138 22.9874C161.028 23.4664 159.83 23.7277 158.587 23.7277C157.255 23.7277 155.967 23.4664 154.724 22.9003C153.481 22.3342 152.415 21.5939 151.527 20.6359C150.595 19.6779 149.884 18.5892 149.352 17.3264C148.819 16.0636 148.553 14.7137 148.553 13.2766C148.553 11.8832 148.819 10.5768 149.352 9.31397C149.884 8.09469 150.595 7.00604 151.527 6.04803C152.415 5.13357 153.481 4.39329 154.724 3.87074C155.923 3.34819 157.21 3.08691 158.587 3.08691ZM165.157 13.4073C165.157 12.5364 164.98 11.7525 164.669 10.9687C164.358 10.2284 163.914 9.57525 163.382 9.00915C162.849 8.44306 162.183 8.0076 161.472 7.70278C160.762 7.39796 159.963 7.22377 159.119 7.22377C158.276 7.22377 157.477 7.39796 156.722 7.70278C156.011 8.0076 155.345 8.44306 154.813 9.00915C154.28 9.57525 153.836 10.2284 153.525 10.9687C153.214 11.709 153.037 12.5364 153.037 13.4508C153.037 14.3217 153.17 15.1491 153.481 15.8894C153.792 16.6297 154.191 17.2829 154.724 17.849C155.257 18.4151 155.878 18.807 156.633 19.1118C157.343 19.4166 158.143 19.5908 159.031 19.5908C159.918 19.5908 160.673 19.4166 161.428 19.1118C162.183 18.807 162.804 18.3715 163.337 17.8054C163.87 17.2393 164.314 16.5861 164.625 15.8459C164.98 15.062 165.157 14.2782 165.157 13.4073Z" fill="white"/>
<path d="M189.31 9.74977C188.733 8.96594 187.978 8.3563 187.09 7.87729C186.202 7.39829 185.225 7.18056 184.293 7.18056C183.494 7.18056 182.739 7.35474 181.984 7.65956C181.274 8.00793 180.608 8.44339 180.075 9.00949C179.543 9.57558 179.099 10.2288 178.788 11.0126C178.477 11.7529 178.299 12.5802 178.299 13.4076C178.299 14.235 178.477 15.0624 178.788 15.8026C179.099 16.5429 179.543 17.1961 180.075 17.7622C180.608 18.3283 181.274 18.7638 181.984 19.0686C182.739 19.3734 183.538 19.5476 184.382 19.5476C185.359 19.5476 186.247 19.3299 187.09 18.9379C187.934 18.5025 188.689 17.8928 189.266 17.0655L192.24 19.9395C190.065 22.4216 187.445 23.6844 184.293 23.6844C182.828 23.6844 181.407 23.4232 180.12 22.9006C178.832 22.3781 177.722 21.6378 176.745 20.7233C175.769 19.8089 175.014 18.7202 174.481 17.4574C173.948 16.1946 173.682 14.8882 173.682 13.4512C173.682 12.0142 173.948 10.6642 174.481 9.4014C175.014 8.13857 175.769 7.04992 176.701 6.09191C177.633 5.1339 178.788 4.39362 180.075 3.87107C181.363 3.30498 182.739 3.0437 184.204 3.0437C185.758 3.0437 187.223 3.34852 188.6 4.00171C189.976 4.6549 191.175 5.56936 192.24 6.78865L189.31 9.74977Z" fill="white"/>
<path d="M213.241 20.0698C212.397 21.1585 211.287 22.0294 209.822 22.6826C208.401 23.3357 206.847 23.6406 205.249 23.6406C203.828 23.6406 202.452 23.3793 201.209 22.8567C199.921 22.3342 198.811 21.5939 197.835 20.6359C196.858 19.6779 196.103 18.5892 195.57 17.3264C195.038 16.0636 194.771 14.7572 194.771 13.3202C194.771 11.8832 195.038 10.5768 195.615 9.31397C196.192 8.09469 196.947 7.00604 197.923 6.04803C198.9 5.13357 200.055 4.39329 201.342 3.87074C202.63 3.34819 204.05 3.08691 205.515 3.08691C207.114 3.08691 208.623 3.39174 209.955 4.04492C211.287 4.65457 212.442 5.52548 213.374 6.61413C214.306 7.70278 215.017 8.96561 215.461 10.4462C215.949 11.9267 216.082 13.5379 215.949 15.2362H199.788C199.966 15.8894 200.188 16.4555 200.587 16.978C200.942 17.5006 201.386 17.9796 201.919 18.3715C202.452 18.7634 203.029 19.0683 203.695 19.286C204.361 19.5037 205.027 19.5908 205.737 19.5908C206.714 19.5908 207.647 19.3731 208.446 18.9812C209.245 18.5892 209.955 17.9796 210.577 17.2393L213.241 20.0698ZM211.065 11.5784C210.71 10.272 210 9.22688 208.979 8.39951C207.957 7.57214 206.759 7.18023 205.382 7.18023C204.05 7.18023 202.896 7.57214 201.875 8.35597C200.854 9.13979 200.143 10.2284 199.699 11.5784H211.065Z" fill="white"/>
<path d="M226.915 23.684C229.196 23.684 231.044 21.8709 231.044 19.6342C231.044 17.3976 229.196 15.5845 226.915 15.5845C224.635 15.5845 222.786 17.3976 222.786 19.6342C222.786 21.8709 224.635 23.684 226.915 23.684Z" fill="#FF0000"/>
</g>
<defs>
<clipPath id="clip0">
<rect width="128" height="28" fill="white" transform="translate(103 3)"/>
</clipPath>
</defs>
</svg>
